<svg width="170.36" height="170.36" version="1.1" viewBox="0 0 170.36 170.36" xml:space="preserve" xmlns="http://www.w3.org/2000/svg"><defs><clipPath id="clipPath18"><path d="M 0,127.77 H 127.77 V 0 H 0 Z"/></clipPath></defs><g transform="matrix(1.3333 0 0 -1.3333 0 170.36)"><g clip-path="url(#clipPath18)"><g transform="translate(126.5 76.615)"><path d="m0 0-5.051-1.69-13.557-3.583c21.293 9.677 11.52 26.769 1.162 37.525-4.52 4.695-9.408 8.072-13.023 10.219-0.513 0.3-1.025 0.605-1.549 0.891-0.07 0.038-0.14 0.077-0.209 0.116-9.036 4.895-19.386 7.677-30.385 7.677-35.284 0-63.886-28.603-63.886-63.885 0-35.283 28.602-63.885 63.886-63.885 35.282 0 63.884 28.602 63.884 63.885 0 4.359-0.44 8.616-1.272 12.73" fill="#e94709"/></g><g transform="translate(123.18 70.247)"><path d="m0 0c-0.469-0.271-6.43-2.982-15.924-3.985-3.001-0.317-9.403-1.848-14.848-5.714 0 0 8.504 2.595 14.008 0.831 0 0-7.811-2.075-12.353-10.297 0 0 8.318 5.998 15.683 6.529 0 0-11.085-5.618-10.087-21.839 0 0 14.719 5.211 17.34 15.385 0 0 1.702-6.504-1.102-12.68 0 0 10.277 13.903 7.283 31.77" fill="#fff"/></g><g transform="translate(19.88 71.342)"><path d="m0 0c-0.567 0.085-0.778 0.801-0.344 1.175 2.183 1.885 4.149 4.031 5.836 6.382-21.439-1.767-7.848 28.939-7.848 28.939-22.541-35.504 5.268-37.125 5.599-37.143-1.336 0.325-2.438 0.526-3.243 0.647" fill="#bb3c0b"/></g><g transform="translate(63.885 4.7943)"><path d="m0 0c-34.479 0-62.562 27.318-63.824 61.488-0.03-0.797-0.062-1.593-0.062-2.397 0-35.283 28.603-63.885 63.886-63.885 35.282 0 63.885 28.602 63.885 63.885 0 0.804-0.031 1.6-0.061 2.397-1.262-34.17-29.345-61.488-63.824-61.488" fill="#bb3c0b"/></g><g transform="translate(89.15 94.09)"><path d="m0 0c-0.05 0.04-0.079 0.069-0.129 0.109-0.05 0.039-0.09 0.069-0.139 0.109-1.309 1.081-1.467 2.509-1.458 3.242 0.708 8.264 4.65 12.13 7.051 13.742 0.565 0.379 1.253-0.214 0.995-0.843-2.831-6.901-1.715-15.489-0.775-20.074 0.142-0.699-0.74-1.102-1.195-0.553-1.6 1.929-3.18 3.343-4.35 4.268m-50.262 0.218c-0.05-0.04-0.09-0.07-0.139-0.109-0.049-0.04-0.079-0.069-0.129-0.109-1.169-0.925-2.75-2.339-4.35-4.268-0.455-0.549-1.338-0.146-1.195 0.553 0.939 4.585 2.055 13.173-0.776 20.074-0.257 0.629 0.431 1.222 0.996 0.843 2.401-1.612 6.342-5.478 7.05-13.742 0.01-0.733-0.148-2.161-1.457-3.242m63.509-15.409c-4.333 6.019-6.882 13.416-6.882 21.408 0 4.74 0.893 9.281 2.529 13.445-0.317 0.01-0.644 0.02-0.961 0.02-9.519 0-17.3-7.48-17.803-16.869-0.013-0.237 0.105-0.463 0.303-0.596 1.829-1.235 3.505-2.688 4.986-4.309-1.666 1.17-3.431 2.201-5.295 3.093-4.66 2.202-9.886 3.441-15.389 3.441-5.504 0-10.729-1.239-15.389-3.441-1.864-0.892-3.629-1.923-5.295-3.093 1.481 1.621 3.157 3.074 4.986 4.309 0.197 0.133 0.316 0.359 0.303 0.596-0.502 9.389-8.283 16.869-17.802 16.869-0.317 0-0.644-0.01-0.962-0.02 1.636-4.164 2.528-8.705 2.528-13.445 0-7.992-2.548-15.389-6.881-21.408-1.688-2.351-3.654-4.497-5.836-6.382-0.435-0.374-0.224-1.09 0.343-1.175 4.576-0.687 18.578-3.895 32.298-18.37 4.297-4.533 3.012-11.673 11.698-11.673h0.019c8.685 0 7.4 7.14 11.696 11.673 13.721 14.475 27.723 17.683 32.298 18.37 0.568 0.085 0.779 0.801 0.344 1.175-2.183 1.885-4.147 4.031-5.836 6.382" fill="#fff"/></g><g transform="translate(75.591 52.972)"><path d="m0 0c-4.297-4.533-3.012-11.673-11.696-11.673h-0.021c-8.684 0-7.399 7.14-11.696 11.673-13.721 14.475-27.722 17.684-32.298 18.37 9e-3 -2e-3 22.881-6.874 31.845-21.716 2.105-3.486 2.458-10.838 12.16-10.838 9.701 0 10.054 7.352 12.159 10.838 8.965 14.842 31.837 21.714 31.845 21.716-4.575-0.686-18.577-3.895-32.298-18.37" fill="#bb3c0b"/></g><g transform="translate(68.46 51.99)"><path d="m0 0c-2.391 0.783-6.759 0.783-9.149 0 0 0-0.997-0.587-0.465-1.859 0.531-1.272 1.713-5.285 5.04-5.285 3.326 0 4.508 4.013 5.039 5.285s-0.465 1.859-0.465 1.859" fill="#e94709"/></g><g transform="translate(45.357 77.362)"><path d="m0 0c-3.637 1.317-5.03 1.401-5.526 0.34-0.824-1.76 3.604-4.36 3.648-4.386l0.045-0.025c0.08-0.04 8.059-4.144 10.169-9.897 0.045-0.156 0.301-0.946 1.023-1.232 0.163-0.065 0.333-0.097 0.507-0.097 0.275 0 0.556 0.081 0.822 0.241 0.672 0.404 0.588 1.28 0.56 1.568-0.269 2.776-4.008 10.863-11.248 13.488" fill="#e94709"/></g><g transform="translate(87.94 77.702)"><path d="m0 0c-0.497 1.061-1.89 0.978-5.526-0.34-7.24-2.624-10.981-10.712-11.249-13.488-0.029-0.288-0.114-1.164 0.56-1.569 0.267-0.159 0.547-0.24 0.821-0.24 0.173 0 0.345 0.033 0.508 0.097 0.722 0.286 0.979 1.076 1.002 1.169 2.128 5.805 10.11 9.92 10.191 9.96l0.044 0.025c0.045 0.026 4.471 2.626 3.649 4.386" fill="#e94709"/></g></g></g></svg>
